<svg id="visual" viewBox="0 0 900 600" width="900" height="600" xmlns="http://www.w3.org/2000/svg" xmlns:xlink="http://www.w3.org/1999/xlink" version="1.1"><rect x="0" y="0" width="900" height="600" fill="#fff"></rect><path d="M0 457L37.5 464C75 471 150 485 225 494.2C300 503.3 375 507.7 450 496C525 484.3 600 456.7 675 450C750 443.3 825 457.7 862.5 464.8L900 472L900 601L862.5 601C825 601 750 601 675 601C600 601 525 601 450 601C375 601 300 601 225 601C150 601 75 601 37.5 601L0 601Z" fill="#2f2f2f" stroke-linecap="round" stroke-linejoin="miter"></path></svg>